<svg xmlns="http://www.w3.org/2000/svg" fill="none" viewBox="0 0 56 56"><defs/><path fill="url(#paint0_linear)" d="M5.08 12.75L26.36 1.08a4 4 0 013.91.03L51 12.96a4 4 0 012 3.47v23.54a4 4 0 01-2.06 3.5l-20.7 11.47a4 4 0 01-3.84.02L5.1 43.46A4 4 0 013 39.94V16.26a4 4 0 012.08-3.5v-.01z"/><path stroke="#fff" stroke-width="1.5" d="M44.297 37.232c-2.078 3.679-11.06 2.482-20.06-2.672-9.001-5.154-14.613-12.314-12.534-15.992 2.078-3.679 11.06-2.482 20.06 2.672 9.001 5.154 14.613 12.314 12.534 15.992z"/><path stroke="#fff" stroke-width="1.5" d="M44.297 18.468c-2.078-3.679-11.06-2.482-20.06 2.672-9.001 5.154-14.613 12.314-12.534 15.992 2.078 3.679 11.06 2.482 20.06-2.672 9.001-5.154 14.613-12.314 12.534-15.992z"/><path stroke="#fff" stroke-width="1.5" d="M28.07 8.98c-4.203 0-7.61 8.448-7.61 18.87s3.407 18.87 7.61 18.87 7.61-8.448 7.61-18.87-3.407-18.87-7.61-18.87z"/><path fill="#fff" d="M31.04 27.72A3.05 3.05 0 0028 24.66a3.05 3.05 0 00-3.04 3.06A3.05 3.05 0 0028 30.78a3.05 3.05 0 003.04-3.06z"/><defs><linearGradient id="paint0_linear" x1="27" x2="29" y1="76" y2="19.5" gradientUnits="userSpaceOnUse"><stop stop-color="#F231A5"/><stop offset="1" stop-color="#FF66C2"/></linearGradient></defs></svg>
