<svg xmlns="http://www.w3.org/2000/svg" fill="none" viewBox="0 0 32 32"><defs/><path fill="#0077B7" d="M29.105 0H2.895A2.895 2.895 0 000 2.895v26.21A2.895 2.895 0 002.895 32h26.21A2.895 2.895 0 0032 29.105V2.895A2.895 2.895 0 0029.105 0zM9.902 27.63a.842.842 0 01-.842.843H5.474a.842.842 0 01-.842-.842V12.599c0-.465.377-.842.842-.842H9.06c.465 0 .842.377.842.842v15.032zM7.267 10.34a3.407 3.407 0 110-6.813 3.407 3.407 0 010 6.813zm21.375 17.359a.775.775 0 01-.775.774H24.02a.775.775 0 01-.774-.774v-7.051c0-1.052.308-4.609-2.749-4.609-2.371 0-2.852 2.435-2.949 3.527V27.7a.775.775 0 01-.775.774h-3.721a.775.775 0 01-.775-.774V12.53c0-.427.347-.774.775-.774h3.721c.428 0 .775.347.775.774v1.312c.88-1.32 2.186-2.338 4.968-2.338 6.162 0 6.127 5.756 6.127 8.919v7.275z"/></svg>