<svg xmlns="http://www.w3.org/2000/svg" fill="none" viewBox="0 0 32 32"><defs/><g clip-path="url(#clip0)"><path fill="#76A9EA" d="M31.491 5.787c-.71.316-1.449.564-2.206.745A6.88 6.88 0 0031.1 3.64a.36.36 0 00-.528-.42A12.733 12.733 0 0127.2 4.612a.894.894 0 01-.801-.2 6.899 6.899 0 00-4.565-1.722c-.729 0-1.464.113-2.186.337a6.684 6.684 0 00-4.505 4.816 7.358 7.358 0 00-.163 2.54.256.256 0 01-.277.279C9.806 10.208 5.39 7.85 2.27 4.02a.36.36 0 00-.592.047 6.893 6.893 0 00-.934 3.468c0 1.87.751 3.633 2.057 4.918a6.184 6.184 0 01-1.574-.61.36.36 0 00-.536.312 6.907 6.907 0 004.03 6.363c-.05.002-.099.002-.148.002-.386 0-.777-.037-1.162-.11a.36.36 0 00-.411.464 6.914 6.914 0 005.461 4.703 12.73 12.73 0 01-7.13 2.165H.533a.528.528 0 00-.516.398.546.546 0 00.261.604 18.935 18.935 0 009.515 2.565c2.925 0 5.66-.58 8.131-1.725a17.957 17.957 0 005.95-4.458 19.544 19.544 0 003.643-6.101c.81-2.164 1.238-4.473 1.238-6.678v-.105c0-.354.16-.687.44-.914a13.636 13.636 0 002.742-3.01c.201-.3-.116-.677-.446-.53z"/></g><defs><clipPath id="clip0"><path fill="#fff" d="M0 0h32v32H0z"/></clipPath></defs></svg>